<svg width="200" height="200" version="1.1" xmlns="http://www.w3.org/2000/svg" desc="Created with imagetracer.js version 1.2.6" ><path fill="rgb(0,13,81)" stroke="rgb(0,13,81)" stroke-width="1" opacity="1" d="M 39 0 L 63.5 0 Q 64.5 0 64 4.5 L 63 7.5 Q 65.5 9 64 14.5 L 61 16 L 58 24 L 60 24.5 L 59 27 Q 54.5 25.3 56 30.5 L 54 30.5 L 56 34.5 L 48 48 Q 45 46.8 46 50.5 Q 41 53.8 40 60 L 34 62.5 L 35 64.5 L 32 66 Q 33.3 69 29.5 68 L 24 71.5 L 22.5 74 Q 18.5 73.5 18 76.5 L 16.5 80 L 11.5 80 L 11 82 L 9.5 82 L 4.5 86 L 0 86 L 0 59.5 L 1.5 58 Q 3.5 55.2 8 56 L 8 52 L 9.5 52 L 18 45.5 L 20 40 L 24 40 Q 22.5 36.3 25.5 37 L 29 32.5 L 28 30.5 L 38 15.5 L 39 0 Z " /><path fill="rgb(0,13,81)" stroke="rgb(0,13,81)" stroke-width="1" opacity="1" d="M 32.5 80 L 35 80.5 Q 32.9 83.8 32.5 80 Z " /><path fill="rgb(0,13,81)" stroke="rgb(0,13,81)" stroke-width="1" opacity="1" d="M 96.5 105 L 94.5 108 L 96.5 105 Z " /><path fill="rgb(0,13,81)" stroke="rgb(0,13,81)" stroke-width="1" opacity="1" d="M 198.5 117 L 200 117.5 L 200 145 L 194.5 145 L 184.5 149 L 182.5 149 L 177 151.5 L 179 152.5 L 176 154 L 175.5 152 L 163 160.5 L 161.5 163 Q 155.8 162.3 155 166.5 L 150.5 173 Q 148.3 172.3 149 174.5 L 144.5 183 L 142.5 182 L 138 188.5 L 138 194.5 Q 135 195.8 136 200 L 107.5 200 L 107 199.5 L 107 193 L 109 192.5 L 108 188.5 L 113.5 180 Q 117.3 181.3 116 177.5 L 120 168 Q 123 169.3 122 165.5 L 125.5 160 Q 130.1 161.3 128 155.5 L 136 149.5 Q 135.3 146.9 138 148 L 138 145.5 Q 138.8 143.3 142.5 144 L 149.5 138 L 152 138 L 153.5 134 Q 157.5 134.5 158 131.5 Q 157 127.8 160 129 Q 158.3 133.1 162.5 132 L 164 129.5 L 163 127.5 L 163 125.5 L 163.5 124 L 165.5 124 L 168 124.5 L 165 125.5 L 167 126 Q 165.7 130.1 169 129 L 171.5 122 L 172 125 Q 176.1 126.3 175 123 L 178.5 123 L 180.5 121 L 189.5 120 L 191.5 118 Q 197 119.5 198.5 117 Z " /><path fill="rgb(0,13,81)" stroke="rgb(0,13,81)" stroke-width="1" opacity="1" d="M 155.5 125 L 157 127.5 L 155 128 L 155.5 125 Z " /><path fill="rgb(0,2,61)" stroke="rgb(0,2,61)" stroke-width="1" opacity="1" d="M 76 0 L 200 0 L 200 102 L 192.5 102 L 191.5 104 L 184.5 104 Q 183.3 107.2 177.5 106 L 173.5 104 L 174.5 106 L 176 106.5 L 174.5 107 L 171 105 Q 172.1 107.7 169.5 107 L 168 106.5 Q 168.8 108.8 166.5 108 L 167 106.5 L 167.5 103 L 168.5 105 L 170 102 L 166 101.5 L 168 101 L 167.5 99 L 165 99.5 Q 165.8 101.8 163.5 101 L 162.5 104 L 160 104.5 L 164 106.5 L 163 109 L 160.5 108 L 160 109.5 L 161 112 Q 158.3 113.1 159 110.5 L 158 110.5 L 158.5 115 L 159 113 Q 161.7 111.9 161 114.5 Q 157.5 116 160 117.5 L 159.5 121 L 157.5 115 L 155.5 119 L 156 117.5 L 155 113.5 L 157 112.5 L 157 110.5 L 156 107.5 L 159 106 L 158 103.5 L 161 88.5 L 161 80 L 163 79.5 L 161.5 77 L 157.5 77 L 156 76.5 L 165 72 L 164 67.5 L 164 65.5 L 162.5 63 L 161 62.5 L 162 59.5 L 160.5 58 L 157 60.5 L 156.5 59 L 155.5 61 L 153.5 61 L 149 64.5 L 148.5 66 L 147 65.5 Q 149.6 66.9 149 71.5 L 148 71.5 Q 148.8 69.3 146.5 70 L 147 71.5 L 148.5 75 L 150 74.5 Q 149.3 76.8 151.5 76 L 150.5 78 Q 149.3 75.8 148 78.5 L 148 80.5 L 147 88 L 144 87.5 L 146 78 L 149 76.5 L 147.5 76 L 146 76.5 L 145.5 75 L 143.5 78 L 139.5 77 L 136.5 78 L 135 74.5 L 137 66 L 134 66.5 L 134.5 68 L 131 66.5 L 133 66 Q 134.1 63.3 131.5 64 L 130 67 L 127.5 68 L 124.5 66 L 123.5 68 L 123 66 L 119 66 L 119 67.5 L 121 67.5 L 120.5 72 L 119 72.5 L 121 73 L 120 75.5 Q 122.3 76.8 119.5 78 L 114.5 77 L 112.5 78 L 109.5 76 L 105.5 78 L 104.5 76 L 104 78 L 98.5 79 L 95.5 76 L 94.5 77 L 87.5 77 L 82.5 79 L 72 87.5 L 71 91 L 68 91.5 L 68.5 93 L 66 93.5 L 67 96 L 62.5 98 L 61 97.5 L 60.5 99 L 59 98.5 L 54.5 105 L 50.5 104 L 50.5 105 L 53 105.5 L 50.5 106 L 48.5 105 L 49.5 108 L 48 107.5 Q 48.6 110.3 42.5 109 L 40.5 106 Q 39.3 108.3 38 105.5 L 38 99.5 L 40 96 L 45 96 L 45 94.5 L 44.5 93 L 47.5 91 L 51.5 91 L 54 92.5 L 53 94.5 L 54.5 95 L 59.5 94 Q 61.8 93.3 61 95.5 Q 62.2 98.3 63.5 96 L 66 94.5 L 64 93.5 L 67 91.5 L 67 87.5 L 67 85 L 64 85 Q 65 82 62 83 L 62 80 L 60.5 80 L 58.5 80 L 53 78 Q 54.3 74.7 49.5 76 L 46 77.5 L 46.5 79 L 44.5 78 L 33.5 84 L 32 81.5 L 33 81.5 L 33.5 83 L 34 81 L 38 81 L 38 79 Q 41.8 80.5 41 77.5 L 44 75.5 L 41 74.5 L 43.5 74 L 46.5 75 L 46.5 74 L 44 72.5 L 45.5 73 L 48 73 L 48 68 L 49.5 68 L 54 65.5 L 58 59.5 L 61 58 Q 60 54.2 62.5 53 L 64 53 L 64 48 Q 66.7 49.1 66 46.5 L 70 41.5 L 75 29.5 L 78 16.5 L 76 14.5 L 76 0 Z M 156 51 L 156 53 L 160 52 L 156 51 Z M 156 57 L 152 59 L 156 59 L 156 57 Z M 158 57 Q 156 60 159 59 L 158 57 Z M 125 64 L 126 66 L 128 65 L 125 64 Z M 144 67 L 144 70 L 147 68 L 144 67 Z M 51 72 L 48 74 L 52 74 L 51 72 Z M 113 72 L 113 74 L 115 73 L 113 72 Z M 83 73 Q 82 76 85 75 Q 86 72 83 73 Z M 163 73 L 164 77 L 167 75 L 163 73 Z M 165 77 Q 163 80 166 79 L 165 77 Z M 69 81 L 67 83 L 69 83 L 69 81 Z M 69 87 L 68 90 L 70 90 L 71 88 L 69 87 Z M 48 92 Q 45 93 46 97 L 49 96 L 48 92 Z M 161 96 Q 158 100 162 99 L 161 96 Z M 174 96 Q 172 101 176 100 Q 178 95 174 96 Z M 44 98 L 42 100 L 46 102 L 47 100 L 44 98 Z M 172 100 Q 171 104 174 103 Q 175 99 172 100 Z M 41 103 L 41 106 L 43 105 Q 44 102 41 103 Z M 45 106 L 44 108 L 48 107 L 45 106 Z " /><path fill="rgb(0,2,61)" stroke="rgb(0,2,61)" stroke-width="1" opacity="1" d="M 31.5 84 L 32 85.5 L 31.5 88 Q 27.5 87.5 27 90.5 Q 27.7 93.1 25 92 L 25 96.5 L 24 99.5 L 23 104.5 Q 25.3 105.8 24 110.5 L 27 114.5 L 26 118.5 L 27 118.5 L 27.5 116 L 39.5 124 L 40.5 123 L 52.5 122 L 55 119.5 L 55.5 118 Q 58.3 119.3 56 120.5 Q 55.3 122.8 57.5 122 Q 60.3 120.8 58 119.5 Q 57.3 117.3 59.5 118 L 61 115 L 65 112.5 Q 64.3 109.9 67 111 L 70.5 117 Q 72.8 116.3 72 118.5 L 74.5 122 L 76.5 121 L 78.5 123 L 81 121.5 L 80 123.5 L 81.5 123 Q 88.3 122.1 91 124 Q 89.7 120.3 95.5 122 L 96.5 123 L 106.5 123 L 107.5 124 L 108 122 Q 110.7 123.1 110 120.5 L 109.5 119 L 113 117.5 L 112.5 116 L 118 118.5 L 115 119.5 Q 121.9 119.6 125.5 123 L 136 123 L 136.5 121 L 137 125 Q 139.7 123.9 139 126.5 L 141 126.5 Q 139.8 129.3 138.5 127 L 128 133 L 126.5 136 Q 124.3 135.3 125 137.5 L 120 141 L 114 152 L 112 152 Q 113.5 155.8 110.5 155 L 107 158.5 L 107 161.5 L 100 172.5 L 100 180.5 L 96 184.5 Q 97.5 190.5 94.5 192 Q 92.3 191.3 93 193.5 L 91 200 L 0 200 L 0 102 L 4.5 102 L 13.5 99 L 20 93.5 Q 19.3 91.3 21.5 92 L 23.5 93 Q 27.2 91 25.5 89 L 27 89.5 L 29 85 L 31.5 84 Z M 66 116 L 64 118 L 67 118 Q 68 115 66 116 Z M 63 118 L 64 120 L 65 120 L 63 118 Z M 49 123 Q 47 126 50 125 L 49 123 Z M 94 123 L 93 125 L 96 124 L 94 123 Z M 122 123 L 121 125 L 124 125 L 122 123 Z M 46 124 L 47 126 Q 48 123 46 124 Z M 50 125 L 50 127 L 52 126 L 50 125 Z M 90 125 L 91 127 Q 92 124 90 125 Z M 105 125 L 106 128 L 106 126 L 109 126 L 105 125 Z " /><path fill="rgb(0,2,61)" stroke="rgb(0,2,61)" stroke-width="1" opacity="1" d="M 143.5 89 Q 147.3 88.3 148 90.5 L 146.5 90 L 145 90.5 L 145.5 96 Q 143.3 95.3 144 97.5 L 146 97.5 L 144 100.5 Q 146.5 102 143 103.5 Q 143.5 107.5 140.5 108 L 136.5 109 L 133 105.5 L 134 104.5 L 133.5 103 Q 131.8 106.8 130 103.5 L 131 101.5 L 129 98.5 L 132 97.5 L 131 93.5 L 135 91 L 135.5 93 L 136 91 Q 141.8 92.5 143.5 89 Z M 142 92 Q 139 94 142 95 L 143 95 L 142 92 Z M 140 98 Q 136 100 141 102 Q 144 100 140 98 Z " /><path fill="rgb(0,2,61)" stroke="rgb(0,2,61)" stroke-width="1" opacity="1" d="M 87.5 91 L 90.5 93 L 90.5 91 Q 93.1 90.2 92 93.5 L 93.5 93 Q 96.8 91.9 96 94.5 L 97.5 97 L 99 96.5 L 98 101 L 96 101.5 L 96 103.5 L 96 105 L 94 105 Q 95.1 107.7 92.5 107 L 90.5 109 L 86.5 109 L 83.5 107 Q 81.8 109.8 80 105.5 L 79 102.5 L 82.5 95 L 87.5 91 Z M 89 93 L 87 95 L 90 95 L 89 93 Z M 91 104 L 91 106 L 93 105 L 91 104 Z " /><path fill="rgb(0,2,61)" stroke="rgb(0,2,61)" stroke-width="1" opacity="1" d="M 113.5 91 Q 118.3 90.3 119 93.5 Q 117 91.8 115 95.5 L 116 99 Q 113.3 97.9 114 100.5 L 116 100.5 L 115 103.5 L 117 104.5 L 115 107.5 Q 116.5 113 114 114.5 L 116 115.5 L 114.5 116 L 113 113 Q 110.3 111.9 111 114.5 L 109 115.5 L 111 112.5 L 109 112 Q 107.9 109.3 110.5 110 L 111 107.5 L 111 101 L 113 101 L 113 97 L 114.5 97 L 114.5 96 L 113 95.5 L 113.5 93 L 116 92.5 Q 112.7 92.6 113.5 91 Z " /><path fill="rgb(0,2,61)" stroke="rgb(0,2,61)" stroke-width="1" opacity="1" d="M 14.5 94 L 15 96 L 13 95.5 L 14.5 94 Z " /><path fill="rgb(0,2,61)" stroke="rgb(0,2,61)" stroke-width="1" opacity="1" d="M 130.5 107 L 134 108.5 L 133.5 110 L 130.5 107 Z " /><path fill="rgb(0,2,61)" stroke="rgb(0,2,61)" stroke-width="1" opacity="1" d="M 171 111 L 173 111.5 L 169.5 114 L 169.5 113 Q 172.1 113.7 171 111 Z " /><path fill="rgb(0,2,61)" stroke="rgb(0,2,61)" stroke-width="1" opacity="1" d="M 173.5 113 L 175 115.5 L 174 115.5 L 173.5 113 Z " /><path fill="rgb(0,2,61)" stroke="rgb(0,2,61)" stroke-width="1" opacity="1" d="M 169.5 115 L 172 115.5 L 169.5 119 L 171.5 118 L 170.5 120 L 168 118.5 Q 167.3 116.3 169.5 117 L 169.5 115 Z " /><path fill="rgb(0,2,61)" stroke="rgb(0,2,61)" stroke-width="1" opacity="1" d="M 155.5 120 L 159 122.5 L 157.5 122 L 155 123.5 L 155.5 125 L 152.5 126 L 151.5 124 L 153.5 125 L 152.5 122 L 154.5 123 L 155.5 120 Z " /><path fill="rgb(0,2,61)" stroke="rgb(0,2,61)" stroke-width="1" opacity="1" d="M 163.5 121 Q 168 123 164.5 125 L 164.5 123 Q 161.7 123.7 163.5 121 Z " /><path fill="rgb(0,2,61)" stroke="rgb(0,2,61)" stroke-width="1" opacity="1" d="M 138.5 122 L 139.5 124 Q 136.7 124.7 138.5 122 Z " /><path fill="rgb(0,2,61)" stroke="rgb(0,2,61)" stroke-width="1" opacity="1" d="M 141.5 122 L 144 122 Q 142.9 124.7 145.5 124 L 145.5 125 Q 140.8 124.2 141.5 122 Z " /><path fill="rgb(63,64,99)" stroke="rgb(63,64,99)" stroke-width="1" opacity="1" d="M 160.5 62 L 161.5 64 L 160.5 62 Z " /><path fill="rgb(63,64,99)" stroke="rgb(63,64,99)" stroke-width="1" opacity="1" d="M 152.5 63 L 151.5 65 L 152.5 63 Z " /><path fill="rgb(63,64,99)" stroke="rgb(63,64,99)" stroke-width="1" opacity="1" d="M 161.5 71 L 159.5 74 L 161.5 71 Z " /><path fill="rgb(63,64,99)" stroke="rgb(63,64,99)" stroke-width="1" opacity="1" d="M 90.5 78 L 94 78.5 L 90.5 79 L 90.5 78 Z " /><path fill="rgb(63,64,99)" stroke="rgb(63,64,99)" stroke-width="1" opacity="1" d="M 105.5 78 L 115 78.5 L 105.5 79 L 105.5 78 Z " /><path fill="rgb(63,64,99)" stroke="rgb(63,64,99)" stroke-width="1" opacity="1" d="M 118.5 78 L 122 78.5 L 118.5 79 L 118.5 78 Z " /><path fill="rgb(63,64,99)" stroke="rgb(63,64,99)" stroke-width="1" opacity="1" d="M 133.5 78 L 144 78.5 L 133.5 79 L 133.5 78 Z " /><path fill="rgb(63,64,99)" stroke="rgb(63,64,99)" stroke-width="1" opacity="1" d="M 150.5 78 L 161 78.5 L 150.5 79 L 150.5 78 Z " /><path fill="rgb(63,64,99)" stroke="rgb(63,64,99)" stroke-width="1" opacity="1" d="M 61.5 83 L 65.5 88 L 61.5 83 Z " /><path fill="rgb(63,64,99)" stroke="rgb(63,64,99)" stroke-width="1" opacity="1" d="M 75.5 85 L 74.5 87 L 75.5 85 Z " /><path fill="rgb(63,64,99)" stroke="rgb(63,64,99)" stroke-width="1" opacity="1" d="M 66.5 96 L 65.5 98 L 66.5 96 Z " /><path fill="rgb(63,64,99)" stroke="rgb(63,64,99)" stroke-width="1" opacity="1" d="M 78.5 100 L 79 103.5 L 78 103.5 L 78.5 100 Z " /><path fill="rgb(63,64,99)" stroke="rgb(63,64,99)" stroke-width="1" opacity="1" d="M 55.5 105 L 54.5 107 L 55.5 105 Z " /><path fill="rgb(63,64,99)" stroke="rgb(63,64,99)" stroke-width="1" opacity="1" d="M 116.5 106 L 117 111.5 L 116 111.5 L 116.5 106 Z " /><path fill="rgb(63,64,99)" stroke="rgb(63,64,99)" stroke-width="1" opacity="1" d="M 80.5 107 L 81.5 109 L 80.5 107 Z " /><path fill="rgb(63,64,99)" stroke="rgb(63,64,99)" stroke-width="1" opacity="1" d="M 163.5 107 L 166 108.5 L 164.5 108 L 163.5 107 Z " /><path fill="rgb(63,64,99)" stroke="rgb(63,64,99)" stroke-width="1" opacity="1" d="M 168.5 107 L 171 108.5 L 169.5 108 L 167.5 109 L 168.5 107 Z " /><path fill="rgb(63,64,99)" stroke="rgb(63,64,99)" stroke-width="1" opacity="1" d="M 66.5 109 L 65.5 111 L 66.5 109 Z " /><path fill="rgb(4,6,51)" stroke="rgb(4,6,51)" stroke-width="1" opacity="1" d="M 156.5 61 L 160 61.5 L 156.5 62 L 156.5 61 Z " /><path fill="rgb(4,6,51)" stroke="rgb(4,6,51)" stroke-width="1" opacity="1" d="M 151.5 62 L 152 64 L 149.5 65 L 151.5 62 Z " /><path fill="rgb(4,6,51)" stroke="rgb(4,6,51)" stroke-width="1" opacity="1" d="M 132.5 64 L 131.5 66 L 132.5 64 Z " /><path fill="rgb(4,6,51)" stroke="rgb(4,6,51)" stroke-width="1" opacity="1" d="M 148 66 Q 151 65 150 68 Q 147 69 148 66 Z " /><path fill="rgb(4,6,51)" stroke="rgb(4,6,51)" stroke-width="1" opacity="1" d="M 128.5 67 L 132 67.5 L 128.5 68 L 128.5 67 Z " /><path fill="rgb(4,6,51)" stroke="rgb(4,6,51)" stroke-width="1" opacity="1" d="M 163.5 67 L 164.5 69 L 163.5 67 Z " /><path fill="rgb(4,6,51)" stroke="rgb(4,6,51)" stroke-width="1" opacity="1" d="M 122.5 68 L 123 71.5 L 121 72.5 L 122.5 68 Z " /><path fill="rgb(4,6,51)" stroke="rgb(4,6,51)" stroke-width="1" opacity="1" d="M 134.5 70 Q 137.5 71.5 134.5 73 L 134.5 70 Z " /><path fill="rgb(4,6,51)" stroke="rgb(4,6,51)" stroke-width="1" opacity="1" d="M 149.5 71 L 152 74.5 L 148 73.5 L 149.5 71 Z " /><path fill="rgb(4,6,51)" stroke="rgb(4,6,51)" stroke-width="1" opacity="1" d="M 134.5 74 L 136 77.5 L 134.5 77 L 133 76.5 L 134.5 74 Z " /><path fill="rgb(4,6,51)" stroke="rgb(4,6,51)" stroke-width="1" opacity="1" d="M 153.5 75 L 156 76.5 L 152.5 78 L 152 76.5 L 153.5 75 Z " /><path fill="rgb(4,6,51)" stroke="rgb(4,6,51)" stroke-width="1" opacity="1" d="M 109.5 76 L 112 77.5 L 106.5 78 L 106.5 77 L 109.5 76 Z " /><path fill="rgb(4,6,51)" stroke="rgb(4,6,51)" stroke-width="1" opacity="1" d="M 46.5 77 L 48 77.5 L 45.5 79 L 46.5 77 Z " /><path fill="rgb(4,6,51)" stroke="rgb(4,6,51)" stroke-width="1" opacity="1" d="M 50.5 77 L 53 77.5 Q 50.9 80.8 50.5 77 Z " /><path fill="rgb(4,6,51)" stroke="rgb(4,6,51)" stroke-width="1" opacity="1" d="M 88 77 L 90 77.5 L 88 78.5 L 88 77 Z " /><path fill="rgb(4,6,51)" stroke="rgb(4,6,51)" stroke-width="1" opacity="1" d="M 93.5 77 L 97 77.5 Q 95.8 80.3 94.5 78 L 93.5 77 Z " /><path fill="rgb(4,6,51)" stroke="rgb(4,6,51)" stroke-width="1" opacity="1" d="M 139.5 77 L 142 77.5 L 139.5 78 L 139.5 77 Z " /><path fill="rgb(4,6,51)" stroke="rgb(4,6,51)" stroke-width="1" opacity="1" d="M 100.5 78 Q 104.9 76.5 104 79.5 L 102 80.5 Q 102.8 78.3 100.5 79 L 99 79.5 L 100.5 78 Z " /><path fill="rgb(4,6,51)" stroke="rgb(4,6,51)" stroke-width="1" opacity="1" d="M 144 78 Q 146.7 76.9 146 79.5 L 143.5 89 L 143 85.5 L 144 84.5 L 144 78 Z " /><path fill="rgb(4,6,51)" stroke="rgb(4,6,51)" stroke-width="1" opacity="1" d="M 56.5 79 L 57.5 81 L 56.5 79 Z " /><path fill="rgb(4,6,51)" stroke="rgb(4,6,51)" stroke-width="1" opacity="1" d="M 59.5 81 L 62 82.5 L 60.5 83 L 59.5 81 Z " /><path fill="rgb(4,6,51)" stroke="rgb(4,6,51)" stroke-width="1" opacity="1" d="M 148.5 81 L 149 83.5 L 148 83.5 L 148.5 81 Z " /><path fill="rgb(4,6,51)" stroke="rgb(4,6,51)" stroke-width="1" opacity="1" d="M 34.5 83 L 36 83.5 L 31.5 87 L 34.5 83 Z " /><path fill="rgb(4,6,51)" stroke="rgb(4,6,51)" stroke-width="1" opacity="1" d="M 63.5 84 Q 65.2 87.1 67 85.5 L 65.5 87 L 63.5 84 Z " /><path fill="rgb(4,6,51)" stroke="rgb(4,6,51)" stroke-width="1" opacity="1" d="M 29.5 88 L 31 88.5 L 28.5 90 L 29.5 88 Z " /><path fill="rgb(4,6,51)" stroke="rgb(4,6,51)" stroke-width="1" opacity="1" d="M 147.5 89 L 146.5 91 L 147.5 89 Z " /><path fill="rgb(4,6,51)" stroke="rgb(4,6,51)" stroke-width="1" opacity="1" d="M 89.5 90 L 96 91.5 L 93.5 92 L 89.5 91 L 89.5 90 Z " /><path fill="rgb(4,6,51)" stroke="rgb(4,6,51)" stroke-width="1" opacity="1" d="M 115.5 90 L 117.5 91 L 119 90.5 Q 117.8 93.3 116.5 91 L 115.5 90 Z " /><path fill="rgb(4,6,51)" stroke="rgb(4,6,51)" stroke-width="1" opacity="1" d="M 138.5 90 L 141 90.5 L 138.5 91 L 138.5 90 Z " /><path fill="rgb(4,6,51)" stroke="rgb(4,6,51)" stroke-width="1" opacity="1" d="M 159.5 90 L 160 92.5 L 159 92.5 L 159.5 90 Z " /><path fill="rgb(4,6,51)" stroke="rgb(4,6,51)" stroke-width="1" opacity="1" d="M 28.5 91 L 26.5 94 L 28.5 91 Z " /><path fill="rgb(4,6,51)" stroke="rgb(4,6,51)" stroke-width="1" opacity="1" d="M 63.5 91 L 66 91.5 L 61.5 94 L 63.5 91 Z " /><path fill="rgb(4,6,51)" stroke="rgb(4,6,51)" stroke-width="1" opacity="1" d="M 85.5 91 L 86 92.5 L 82.5 94 L 82.5 93 Q 86 94 85.5 91 Z " /><path fill="rgb(4,6,51)" stroke="rgb(4,6,51)" stroke-width="1" opacity="1" d="M 41.5 92 L 42 93.5 L 37.5 100 L 38 98.5 Q 38.3 93.8 41.5 92 Z " /><path fill="rgb(4,6,51)" stroke="rgb(4,6,51)" stroke-width="1" opacity="1" d="M 54.5 92 L 57 93.5 L 56.5 95 L 56 93 L 54.5 92 Z " /><path fill="rgb(4,6,51)" stroke="rgb(4,6,51)" stroke-width="1" opacity="1" d="M 130.5 93 L 132 97 Q 128.2 98.2 130.5 93 Z " /><path fill="rgb(4,6,51)" stroke="rgb(4,6,51)" stroke-width="1" opacity="1" d="M 65.5 96 L 63.5 99 L 65.5 96 Z " /><path fill="rgb(4,6,51)" stroke="rgb(4,6,51)" stroke-width="1" opacity="1" d="M 111 96 L 113 96.5 L 113 98.5 L 111.5 101 L 111 96 Z " /><path fill="rgb(4,6,51)" stroke="rgb(4,6,51)" stroke-width="1" opacity="1" d="M 116 97 L 118 97.5 L 116 98.5 L 116 97 Z " /><path fill="rgb(4,6,51)" stroke="rgb(4,6,51)" stroke-width="1" opacity="1" d="M 61.5 98 L 61 99.5 L 60.5 101 L 59.5 99 L 61.5 98 Z " /><path fill="rgb(4,6,51)" stroke="rgb(4,6,51)" stroke-width="1" opacity="1" d="M 158.5 98 L 159 100.5 L 158 103.5 L 157.5 106 L 157 101.5 L 158.5 98 Z " /><path fill="rgb(4,6,51)" stroke="rgb(4,6,51)" stroke-width="1" opacity="1" d="M 98.5 99 L 99 101.5 L 98 101.5 L 98.5 99 Z " /><path fill="rgb(4,6,51)" stroke="rgb(4,6,51)" stroke-width="1" opacity="1" d="M 165.5 100 L 165.5 103 Q 162.5 101.5 165.5 100 Z " /><path fill="rgb(4,6,51)" stroke="rgb(4,6,51)" stroke-width="1" opacity="1" d="M 24.5 102 L 24.5 105 Q 22.3 105.8 23 103.5 L 24.5 102 Z " /><path fill="rgb(4,6,51)" stroke="rgb(4,6,51)" stroke-width="1" opacity="1" d="M 110.5 102 L 111 105.5 L 110 105.5 L 110.5 102 Z " /><path fill="rgb(4,6,51)" stroke="rgb(4,6,51)" stroke-width="1" opacity="1" d="M 143.5 103 Q 145.8 102.3 145 104.5 L 143.5 103 Z " /><path fill="rgb(4,6,51)" stroke="rgb(4,6,51)" stroke-width="1" opacity="1" d="M 142.5 106 L 145 106.5 L 143.5 108 L 141 107.5 L 142.5 106 Z " /><path fill="rgb(4,6,51)" stroke="rgb(4,6,51)" stroke-width="1" opacity="1" d="M 40.5 107 L 42 109.5 L 40 108.5 L 40.5 107 Z " /><path fill="rgb(4,6,51)" stroke="rgb(4,6,51)" stroke-width="1" opacity="1" d="M 129.5 107 L 131 109.5 L 129 108.5 L 129.5 107 Z " /><path fill="rgb(4,6,51)" stroke="rgb(4,6,51)" stroke-width="1" opacity="1" d="M 82.5 108 L 86 109.5 L 84.5 110 L 82.5 108 Z " /><path fill="rgb(4,6,51)" stroke="rgb(4,6,51)" stroke-width="1" opacity="1" d="M 46.5 109 L 49 109.5 L 46.5 110 L 46.5 109 Z " /><path fill="rgb(4,6,51)" stroke="rgb(4,6,51)" stroke-width="1" opacity="1" d="M 67.5 109 L 70 113.5 L 68 114 Q 69.5 110.2 66.5 111 L 67.5 109 Z " /><path fill="rgb(4,6,51)" stroke="rgb(4,6,51)" stroke-width="1" opacity="1" d="M 132.5 109 L 137 109.5 L 133.5 111 L 132.5 109 Z " /><path fill="rgb(4,6,51)" stroke="rgb(4,6,51)" stroke-width="1" opacity="1" d="M 166.5 109 L 167 111.5 L 165 112.5 L 166.5 109 Z " /><path fill="rgb(4,6,51)" stroke="rgb(4,6,51)" stroke-width="1" opacity="1" d="M 161.5 110 L 162 112.5 L 161 112.5 L 161.5 110 Z " /><path fill="rgb(4,6,51)" stroke="rgb(4,6,51)" stroke-width="1" opacity="1" d="M 26.5 112 L 28 114.5 L 26 113.5 L 26.5 112 Z " /><path fill="rgb(4,6,51)" stroke="rgb(4,6,51)" stroke-width="1" opacity="1" d="M 63.5 112 L 63 113.5 L 62.5 115 L 62 113.5 L 63.5 112 Z " /><path fill="rgb(4,6,51)" stroke="rgb(4,6,51)" stroke-width="1" opacity="1" d="M 109.5 112 L 110 114 L 108 113.5 L 109.5 112 Z " /><path fill="rgb(4,6,51)" stroke="rgb(4,6,51)" stroke-width="1" opacity="1" d="M 116.5 112 L 119 117.5 L 117.5 117 Q 114.9 117.8 116 114.5 Q 113.7 113.3 116.5 112 Z " /><path fill="rgb(4,6,51)" stroke="rgb(4,6,51)" stroke-width="1" opacity="1" d="M 155.5 115 L 156 117.5 L 155 117.5 L 155.5 115 Z " /><path fill="rgb(4,6,51)" stroke="rgb(4,6,51)" stroke-width="1" opacity="1" d="M 160.5 115 L 161 117 L 159 116.5 L 160.5 115 Z " /><path fill="rgb(4,6,51)" stroke="rgb(4,6,51)" stroke-width="1" opacity="1" d="M 164 115 L 166 115.5 L 165 121 Q 162.3 122.1 163 119.5 L 164 115 Z " /><path fill="rgb(4,6,51)" stroke="rgb(4,6,51)" stroke-width="1" opacity="1" d="M 28.5 116 L 29.5 118 L 28.5 116 Z " /><path fill="rgb(4,6,51)" stroke="rgb(4,6,51)" stroke-width="1" opacity="1" d="M 58.5 116 L 61 116.5 L 59.5 118 L 57 117.5 L 58.5 116 Z " /><path fill="rgb(4,6,51)" stroke="rgb(4,6,51)" stroke-width="1" opacity="1" d="M 108.5 117 L 109 118.5 L 108.5 121 Q 105.9 121.8 107 118.5 L 108.5 117 Z " /><path fill="rgb(4,6,51)" stroke="rgb(4,6,51)" stroke-width="1" opacity="1" d="M 72.5 118 L 76 119 Q 77.1 121.7 74.5 121 L 72.5 118 Z " /><path fill="rgb(4,6,51)" stroke="rgb(4,6,51)" stroke-width="1" opacity="1" d="M 95.5 119 L 95 120.5 L 94.5 122 L 92.5 122 L 90 121.5 L 95.5 119 Z " /><path fill="rgb(4,6,51)" stroke="rgb(4,6,51)" stroke-width="1" opacity="1" d="M 142.5 119 L 143 120.5 Q 141.5 123.5 140 120.5 L 142 120.5 L 142.5 119 Z " /><path fill="rgb(4,6,51)" stroke="rgb(4,6,51)" stroke-width="1" opacity="1" d="M 51.5 120 L 52.5 122 L 48 121.5 L 51.5 120 Z " /><path fill="rgb(4,6,51)" stroke="rgb(4,6,51)" stroke-width="1" opacity="1" d="M 38.5 121 Q 41.5 122.5 38.5 124 L 38.5 121 Z " /><path fill="rgb(4,6,51)" stroke="rgb(4,6,51)" stroke-width="1" opacity="1" d="M 126.5 121 L 131 122.5 L 127.5 123 L 126.5 121 Z " /><path fill="rgb(4,6,51)" stroke="rgb(4,6,51)" stroke-width="1" opacity="1" d="M 44.5 122 L 47 122.5 L 44.5 123 L 44.5 122 Z " /><path fill="rgb(4,6,51)" stroke="rgb(4,6,51)" stroke-width="1" opacity="1" d="M 85.5 122 L 89 122.5 L 85.5 123 L 85.5 122 Z " /><path fill="rgb(4,6,51)" stroke="rgb(4,6,51)" stroke-width="1" opacity="1" d="M 96.5 122 L 105 122.5 L 96.5 123 L 96.5 122 Z " /><path fill="rgb(4,6,51)" stroke="rgb(4,6,51)" stroke-width="1" opacity="1" d="M 144.5 122 L 147 122.5 L 144.5 123 L 144.5 122 Z " /><path fill="rgb(4,6,51)" stroke="rgb(4,6,51)" stroke-width="1" opacity="1" d="M 149.5 122 L 152 122.5 L 149.5 123 L 149.5 122 Z " /><path fill="rgb(253,254,253)" stroke="rgb(253,254,253)" stroke-width="1" opacity="1" d="M 154.5 63 L 158.5 63 Q 160.8 62.3 160 64.5 L 162 68.5 L 157.5 74 L 155.5 74 L 151 73 L 150 68.5 L 151 66 L 154 64.5 L 154.5 63 Z " /><path fill="rgb(253,254,253)" stroke="rgb(253,254,253)" stroke-width="1" opacity="1" d="M 124 69 L 131.5 69 L 133 70.5 L 132 73.5 L 133 75.5 L 131 78.5 L 133.5 80 L 136.5 79 Q 141.8 77.8 143 80.5 L 142 83.5 L 143 85.5 Q 139.9 87.3 141.5 89 L 139.5 88 L 134.5 89 L 132.5 89 L 129 90.5 L 130 92.5 L 128 93.5 L 129 96.5 L 128 97.5 L 128 108.5 L 129 111 Q 131.4 112.8 137.5 112 L 146 106.5 L 149 85.5 L 151 80.5 L 150.5 79 L 156.5 80 L 160 79 L 158 92 L 156 92.5 L 158 93 L 153 121 L 144 121 L 144 117.5 L 140 118.5 L 139.5 120 L 137.5 120 Q 134.3 122.3 127.5 121 L 125.5 118 L 124.5 120 L 120 117.5 L 120.5 116 L 118 114.5 Q 120.5 113 117 111.5 L 118 107.5 L 118 105.5 L 118 98.5 Q 120.7 95.2 120 88.5 L 118.5 89 L 116.5 88 L 111 90.5 Q 111.6 96.6 109 99.5 L 110 101.5 Q 107.3 106.1 108 113 L 106 113.5 L 107 117.5 L 106 121 L 96 120.5 L 98 119.5 L 94.5 118 L 88.5 121 L 86.5 121 L 76 119 L 75.5 117 L 74 117.5 L 74.5 116 L 70 112.5 L 66.5 107 L 60.5 114 L 58 114 L 58 116 L 55 116 Q 56.1 118.7 53.5 118 L 51 118.5 L 50.5 120 Q 49 117.5 47.5 121 L 40.5 121 L 40 119.5 L 35.5 119 L 30 115.5 L 30.5 114 L 27 111.5 L 26 108.5 L 26 106.5 L 27 103.5 L 26 98.5 Q 29.6 96.6 29 92 L 31 91.5 L 30.5 90 L 33 88.5 L 35.5 85 L 38 84.5 L 37.5 83 L 39 83.5 Q 38.3 81.3 40.5 82 L 43.5 80 Q 48.3 81.3 49.5 79 L 52 80 L 52.5 82 L 53.5 80 L 57.5 82 L 65 88.5 L 58.5 94 L 52.5 89 L 45.5 89 Q 39.4 90.4 37 95.5 L 35 102.5 L 36 104.5 Q 33.5 106 37 107.5 L 37.5 110 Q 39 107.5 40.5 111 L 49.5 111 L 59.5 103 L 63 102 L 65.5 98 Q 68.8 99.1 68 96.5 L 75.5 87 Q 77.8 87.8 77 85.5 Q 82 79 93.5 79 L 98.5 80 L 102.5 83 L 104.5 80 L 107.5 79 L 109.5 79 L 117.5 80 L 120.5 79 Q 124.7 80.3 123 75.5 L 123 73.5 L 124 69 Z M 90 88 Q 88 91 87 89 L 84 91 L 77 100 Q 79 101 78 106 L 78 108 L 84 110 L 85 112 Q 86 110 91 111 L 93 111 L 97 109 L 96 108 L 98 107 Q 97 102 101 101 L 98 91 L 97 91 L 90 88 Z " /><path fill="rgb(253,254,253)" stroke="rgb(253,254,253)" stroke-width="1" opacity="1" d="M 169.5 108 L 169 109.5 L 166.5 119 L 166 117.5 L 169.5 108 Z " /><path fill="rgb(253,254,253)" stroke="rgb(253,254,253)" stroke-width="1" opacity="1" d="M 173.5 108 L 174 110 L 172 109.5 L 173.5 108 Z " /><path fill="rgb(253,254,253)" stroke="rgb(253,254,253)" stroke-width="1" opacity="1" d="M 163.5 110 L 164 112.5 L 162.5 115 L 162 113.5 L 163.5 110 Z " /><path fill="rgb(253,254,253)" stroke="rgb(253,254,253)" stroke-width="1" opacity="1" d="M 162.5 117 L 162 118.5 L 161.5 120 L 161 118.5 L 162.5 117 Z " /><path fill="rgb(127,129,158)" stroke="rgb(127,129,158)" stroke-width="1" opacity="1" d="M 162.5 65 L 163 68.5 L 162 68.5 L 162.5 65 Z " /><path fill="rgb(127,129,158)" stroke="rgb(127,129,158)" stroke-width="1" opacity="1" d="M 150.5 72 L 151.5 74 L 150.5 72 Z " /><path fill="rgb(127,129,158)" stroke="rgb(127,129,158)" stroke-width="1" opacity="1" d="M 142.5 88 L 141.5 90 L 131.5 90 L 130.5 91 L 131.5 89 L 141.5 89 L 142.5 88 Z " /><path fill="rgb(127,129,158)" stroke="rgb(127,129,158)" stroke-width="1" opacity="1" d="M 90.5 89 L 93 89.5 L 90.5 90 L 90.5 89 Z " /><path fill="rgb(127,129,158)" stroke="rgb(127,129,158)" stroke-width="1" opacity="1" d="M 112.5 89 L 120 89.5 L 112.5 90 L 112.5 89 Z " /><path fill="rgb(127,129,158)" stroke="rgb(127,129,158)" stroke-width="1" opacity="1" d="M 96.5 91 L 97.5 93 L 96.5 91 Z " /><path fill="rgb(127,129,158)" stroke="rgb(127,129,158)" stroke-width="1" opacity="1" d="M 60.5 101 L 59.5 103 L 60.5 101 Z " /><path fill="rgb(127,129,158)" stroke="rgb(127,129,158)" stroke-width="1" opacity="1" d="M 129.5 109 L 130.5 111 L 129.5 109 Z " /><path fill="rgb(127,129,158)" stroke="rgb(127,129,158)" stroke-width="1" opacity="1" d="M 85.5 110 L 90 110.5 L 85.5 111 L 85.5 110 Z " /><path fill="rgb(127,129,158)" stroke="rgb(127,129,158)" stroke-width="1" opacity="1" d="M 170.5 111 L 169.5 113 L 170.5 111 Z " /><path fill="rgb(127,129,158)" stroke="rgb(127,129,158)" stroke-width="1" opacity="1" d="M 62.5 112 L 61.5 114 L 62.5 112 Z " /><path fill="rgb(127,129,158)" stroke="rgb(127,129,158)" stroke-width="1" opacity="1" d="M 29.5 115 L 31.5 118 L 29.5 115 Z " /><path fill="rgb(127,129,158)" stroke="rgb(127,129,158)" stroke-width="1" opacity="1" d="M 71.5 115 L 73.5 118 L 71.5 115 Z " /><path fill="rgb(127,129,158)" stroke="rgb(127,129,158)" stroke-width="1" opacity="1" d="M 41.5 121 L 46 121.5 L 41.5 122 L 41.5 121 Z " /><path fill="rgb(127,129,158)" stroke="rgb(127,129,158)" stroke-width="1" opacity="1" d="M 82.5 121 L 88 121.5 L 82.5 122 L 82.5 121 Z " /><path fill="rgb(127,129,158)" stroke="rgb(127,129,158)" stroke-width="1" opacity="1" d="M 96.5 121 L 106 121.5 L 96.5 122 L 96.5 121 Z " /><path fill="rgb(127,129,158)" stroke="rgb(127,129,158)" stroke-width="1" opacity="1" d="M 129.5 121 L 134 121.5 L 129.5 122 L 129.5 121 Z " /><path fill="rgb(127,129,158)" stroke="rgb(127,129,158)" stroke-width="1" opacity="1" d="M 143.5 121 L 154 121.5 L 143.5 122 L 143.5 121 Z " /><path fill="rgb(247,249,252)" stroke="rgb(247,249,252)" stroke-width="1" opacity="1" d="M 156.5 62 Q 158.8 61.3 158 63.5 L 155 63.5 L 156.5 62 Z " /><path fill="rgb(247,249,252)" stroke="rgb(247,249,252)" stroke-width="1" opacity="1" d="M 152 64 L 154 64.5 L 152 65.5 L 152 64 Z " /><path fill="rgb(247,249,252)" stroke="rgb(247,249,252)" stroke-width="1" opacity="1" d="M 160.5 64 L 161.5 66 L 160.5 64 Z " /><path fill="rgb(247,249,252)" stroke="rgb(247,249,252)" stroke-width="1" opacity="1" d="M 132.5 68 L 133.5 70 Q 130.7 70.7 132.5 68 Z " /><path fill="rgb(247,249,252)" stroke="rgb(247,249,252)" stroke-width="1" opacity="1" d="M 160.5 71 L 159.5 73 L 160.5 71 Z " /><path fill="rgb(247,249,252)" stroke="rgb(247,249,252)" stroke-width="1" opacity="1" d="M 46.5 79 L 49 79.5 L 46.5 80 L 46.5 79 Z " /><path fill="rgb(247,249,252)" stroke="rgb(247,249,252)" stroke-width="1" opacity="1" d="M 142.5 79 L 144 79.5 L 141.5 81 L 142.5 79 Z " /><path fill="rgb(247,249,252)" stroke="rgb(247,249,252)" stroke-width="1" opacity="1" d="M 54.5 80 L 55.5 82 L 54.5 80 Z " /><path fill="rgb(247,249,252)" stroke="rgb(247,249,252)" stroke-width="1" opacity="1" d="M 38.5 83 L 38.5 86 L 36 84.5 L 38.5 83 Z " /><path fill="rgb(247,249,252)" stroke="rgb(247,249,252)" stroke-width="1" opacity="1" d="M 61.5 84 L 64.5 88 L 61.5 84 Z " /><path fill="rgb(247,249,252)" stroke="rgb(247,249,252)" stroke-width="1" opacity="1" d="M 32.5 88 L 33.5 90 L 31 89.5 L 32.5 88 Z " /><path fill="rgb(247,249,252)" stroke="rgb(247,249,252)" stroke-width="1" opacity="1" d="M 35.5 88 L 38 88.5 L 37.5 90 L 39 90.5 L 37.5 91 L 35.5 88 Z " /><path fill="rgb(247,249,252)" stroke="rgb(247,249,252)" stroke-width="1" opacity="1" d="M 54.5 88 L 55.5 90 L 54.5 88 Z " /><path fill="rgb(247,249,252)" stroke="rgb(247,249,252)" stroke-width="1" opacity="1" d="M 87.5 88 L 86.5 90 L 87.5 88 Z " /><path fill="rgb(247,249,252)" stroke="rgb(247,249,252)" stroke-width="1" opacity="1" d="M 98.5 89 L 98 90.5 L 99 92.5 L 97 91.5 L 98.5 89 Z " /><path fill="rgb(247,249,252)" stroke="rgb(247,249,252)" stroke-width="1" opacity="1" d="M 102.5 89 Q 105.5 90.5 102.5 92 L 102.5 89 Z " /><path fill="rgb(247,249,252)" stroke="rgb(247,249,252)" stroke-width="1" opacity="1" d="M 74.5 90 L 73.5 92 L 74.5 90 Z " /><path fill="rgb(247,249,252)" stroke="rgb(247,249,252)" stroke-width="1" opacity="1" d="M 28.5 93 L 30 95.5 L 27 95.5 L 28.5 93 Z " /><path fill="rgb(247,249,252)" stroke="rgb(247,249,252)" stroke-width="1" opacity="1" d="M 35.5 94 L 38 95.5 L 36.5 95 L 35.5 94 Z " /><path fill="rgb(247,249,252)" stroke="rgb(247,249,252)" stroke-width="1" opacity="1" d="M 76.5 95 L 77.5 97 L 75 96.5 L 76.5 95 Z " /><path fill="rgb(247,249,252)" stroke="rgb(247,249,252)" stroke-width="1" opacity="1" d="M 61.5 101 L 63 101.5 L 60.5 103 L 61.5 101 Z " /><path fill="rgb(247,249,252)" stroke="rgb(247,249,252)" stroke-width="1" opacity="1" d="M 27.5 102 L 26.5 104 L 27.5 102 Z " /><path fill="rgb(247,249,252)" stroke="rgb(247,249,252)" stroke-width="1" opacity="1" d="M 35.5 105 L 36.5 107 L 35.5 105 Z " /><path fill="rgb(247,249,252)" stroke="rgb(247,249,252)" stroke-width="1" opacity="1" d="M 68.5 105 L 67 107.5 L 65.5 110 L 66 108.5 L 68.5 105 Z " /><path fill="rgb(247,249,252)" stroke="rgb(247,249,252)" stroke-width="1" opacity="1" d="M 100.5 106 L 99.5 108 L 100.5 106 Z " /><path fill="rgb(247,249,252)" stroke="rgb(247,249,252)" stroke-width="1" opacity="1" d="M 34.5 107 Q 37.5 108.5 34.5 110 L 34.5 107 Z " /><path fill="rgb(247,249,252)" stroke="rgb(247,249,252)" stroke-width="1" opacity="1" d="M 61.5 107 L 63 107.5 L 61 108 L 60.5 110 L 60 108.5 L 61.5 107 Z " /><path fill="rgb(247,249,252)" stroke="rgb(247,249,252)" stroke-width="1" opacity="1" d="M 78.5 107 L 78 108.5 L 77.5 110 L 77 108.5 L 78.5 107 Z " /><path fill="rgb(247,249,252)" stroke="rgb(247,249,252)" stroke-width="1" opacity="1" d="M 102.5 107 Q 106 109 101.5 111 L 102.5 107 Z " /><path fill="rgb(247,249,252)" stroke="rgb(247,249,252)" stroke-width="1" opacity="1" d="M 163 108 Q 166 107 165 110 Q 162 111 163 108 Z " /><path fill="rgb(247,249,252)" stroke="rgb(247,249,252)" stroke-width="1" opacity="1" d="M 168.5 108 L 170 111.5 L 169 111.5 L 168.5 108 Z " /><path fill="rgb(247,249,252)" stroke="rgb(247,249,252)" stroke-width="1" opacity="1" d="M 93.5 109 L 92.5 111 L 93.5 109 Z " /><path fill="rgb(247,249,252)" stroke="rgb(247,249,252)" stroke-width="1" opacity="1" d="M 40.5 110 L 39.5 112 L 40.5 110 Z " /><path fill="rgb(247,249,252)" stroke="rgb(247,249,252)" stroke-width="1" opacity="1" d="M 73.5 112 L 72 114.5 L 73.5 116 L 75.5 117 L 77 116.5 Q 75.8 119.3 74.5 117 L 71 114.5 L 73.5 112 Z " /><path fill="rgb(247,249,252)" stroke="rgb(247,249,252)" stroke-width="1" opacity="1" d="M 117.5 112 L 118.5 114 L 117.5 112 Z " /><path fill="rgb(247,249,252)" stroke="rgb(247,249,252)" stroke-width="1" opacity="1" d="M 162.5 112 L 163.5 114 L 162.5 112 Z " /><path fill="rgb(247,249,252)" stroke="rgb(247,249,252)" stroke-width="1" opacity="1" d="M 167.5 112 L 168.5 114 L 167.5 112 Z " /><path fill="rgb(247,249,252)" stroke="rgb(247,249,252)" stroke-width="1" opacity="1" d="M 28.5 113 L 31 114.5 L 29.5 115 L 28.5 113 Z " /><path fill="rgb(247,249,252)" stroke="rgb(247,249,252)" stroke-width="1" opacity="1" d="M 38.5 113 L 39.5 115 L 38.5 113 Z " /><path fill="rgb(247,249,252)" stroke="rgb(247,249,252)" stroke-width="1" opacity="1" d="M 57.5 113 L 60 114.5 L 58.5 115 L 57.5 113 Z " /><path fill="rgb(247,249,252)" stroke="rgb(247,249,252)" stroke-width="1" opacity="1" d="M 126.5 113 L 127.5 115 L 126.5 113 Z " /><path fill="rgb(247,249,252)" stroke="rgb(247,249,252)" stroke-width="1" opacity="1" d="M 118.5 115 L 121 116.5 L 119.5 117 L 118.5 115 Z " /><path fill="rgb(247,249,252)" stroke="rgb(247,249,252)" stroke-width="1" opacity="1" d="M 162.5 115 L 163 116.5 L 162.5 119 Q 159.8 117.8 162 116.5 L 162.5 115 Z " /><path fill="rgb(247,249,252)" stroke="rgb(247,249,252)" stroke-width="1" opacity="1" d="M 31.5 116 L 32.5 118 L 31.5 116 Z " /><path fill="rgb(247,249,252)" stroke="rgb(247,249,252)" stroke-width="1" opacity="1" d="M 55 116 L 57 116.5 L 55 117.5 L 55 116 Z " /><path fill="rgb(247,249,252)" stroke="rgb(247,249,252)" stroke-width="1" opacity="1" d="M 138.5 116 L 140 116.5 L 136.5 118 L 136.5 117 L 138.5 116 Z " /><path fill="rgb(247,249,252)" stroke="rgb(247,249,252)" stroke-width="1" opacity="1" d="M 92.5 117 L 95 118.5 L 93.5 118 L 92.5 117 Z " /><path fill="rgb(247,249,252)" stroke="rgb(247,249,252)" stroke-width="1" opacity="1" d="M 38.5 118 L 40 120.5 L 39 120.5 L 38.5 119 L 37 119.5 L 38.5 118 Z " /><path fill="rgb(247,249,252)" stroke="rgb(247,249,252)" stroke-width="1" opacity="1" d="M 96.5 118 L 97.5 120 L 96.5 118 Z " /><path fill="rgb(247,249,252)" stroke="rgb(247,249,252)" stroke-width="1" opacity="1" d="M 161.5 120 L 162 122.5 L 158 125.5 L 160 122.5 L 161.5 120 Z " /><path fill="rgb(223,224,247)" stroke="rgb(223,224,247)" stroke-width="1" opacity="1" d="M 160.5 63 L 161.5 65 L 160.5 63 Z " /><path fill="rgb(223,224,247)" stroke="rgb(223,224,247)" stroke-width="1" opacity="1" d="M 124.5 68 L 132 68.5 L 124.5 69 L 124.5 68 Z " /><path fill="rgb(223,224,247)" stroke="rgb(223,224,247)" stroke-width="1" opacity="1" d="M 34.5 85 L 32.5 88 L 34.5 85 Z " /><path fill="rgb(223,224,247)" stroke="rgb(223,224,247)" stroke-width="1" opacity="1" d="M 76.5 85 L 73.5 89 L 76.5 85 Z " /><path fill="rgb(223,224,247)" stroke="rgb(223,224,247)" stroke-width="1" opacity="1" d="M 65.5 88 L 64.5 90 L 65.5 88 Z " /><path fill="rgb(223,224,247)" stroke="rgb(223,224,247)" stroke-width="1" opacity="1" d="M 60.5 92 L 59.5 94 L 60.5 92 Z " /><path fill="rgb(223,224,247)" stroke="rgb(223,224,247)" stroke-width="1" opacity="1" d="M 67.5 96 L 66.5 98 L 67.5 96 Z " /><path fill="rgb(223,224,247)" stroke="rgb(223,224,247)" stroke-width="1" opacity="1" d="M 25.5 102 L 26 105.5 L 25 105.5 L 25.5 102 Z " /><path fill="rgb(223,224,247)" stroke="rgb(223,224,247)" stroke-width="1" opacity="1" d="M 57.5 104 L 56.5 106 L 57.5 104 Z " /><path fill="rgb(223,224,247)" stroke="rgb(223,224,247)" stroke-width="1" opacity="1" d="M 97.5 105 L 94.5 109 L 97.5 105 Z " /><path fill="rgb(223,224,247)" stroke="rgb(223,224,247)" stroke-width="1" opacity="1" d="M 37.5 107 L 39.5 110 L 37.5 107 Z " /><path fill="rgb(223,224,247)" stroke="rgb(223,224,247)" stroke-width="1" opacity="1" d="M 79.5 107 L 80.5 109 L 79.5 107 Z " /><path fill="rgb(223,224,247)" stroke="rgb(223,224,247)" stroke-width="1" opacity="1" d="M 170.5 109 L 171.5 111 L 170.5 109 Z " /><path fill="rgb(223,224,247)" stroke="rgb(223,224,247)" stroke-width="1" opacity="1" d="M 95.5 118 L 96.5 120 L 95.5 118 Z " /><path fill="rgb(0,0,49)" stroke="rgb(0,0,49)" stroke-width="1" opacity="1" d="M 160.5 59 L 160.5 61 L 162 61.5 L 160.5 62 L 158 60.5 L 160.5 59 Z " /><path fill="rgb(0,0,49)" stroke="rgb(0,0,49)" stroke-width="1" opacity="1" d="M 156.5 60 L 155.5 62 L 156.5 60 Z " /><path fill="rgb(0,0,49)" stroke="rgb(0,0,49)" stroke-width="1" opacity="1" d="M 126 64 L 128 64.5 L 126 65.5 L 126 64 Z " /><path fill="rgb(0,0,49)" stroke="rgb(0,0,49)" stroke-width="1" opacity="1" d="M 131.5 64 L 132.5 66 L 131 65.5 L 130.5 67 L 130 65.5 L 131.5 64 Z " /><path fill="rgb(0,0,49)" stroke="rgb(0,0,49)" stroke-width="1" opacity="1" d="M 150.5 64 L 149.5 66 L 150.5 64 Z " /><path fill="rgb(0,0,49)" stroke="rgb(0,0,49)" stroke-width="1" opacity="1" d="M 163.5 65 L 164.5 67 Q 161.7 67.7 163.5 65 Z " /><path fill="rgb(0,0,49)" stroke="rgb(0,0,49)" stroke-width="1" opacity="1" d="M 144.5 67 Q 146.8 66.3 146 68.5 L 144 69.5 L 144.5 67 Z " /><path fill="rgb(0,0,49)" stroke="rgb(0,0,49)" stroke-width="1" opacity="1" d="M 121.5 68 L 122 69.5 L 120 70.5 L 121.5 68 Z " /><path fill="rgb(0,0,49)" stroke="rgb(0,0,49)" stroke-width="1" opacity="1" d="M 135.5 68 L 136 70.5 L 134 71.5 L 135.5 68 Z " /><path fill="rgb(0,0,49)" stroke="rgb(0,0,49)" stroke-width="1" opacity="1" d="M 163.5 68 L 165 70.5 L 159.5 75 L 160.5 73 L 163.5 71 L 163 69.5 L 163.5 68 Z " /><path fill="rgb(0,0,49)" stroke="rgb(0,0,49)" stroke-width="1" opacity="1" d="M 114.5 72 L 115.5 74 L 113 73.5 L 114.5 72 Z " /><path fill="rgb(0,0,49)" stroke="rgb(0,0,49)" stroke-width="1" opacity="1" d="M 120.5 72 L 121.5 74 L 120.5 72 Z " /><path fill="rgb(0,0,49)" stroke="rgb(0,0,49)" stroke-width="1" opacity="1" d="M 148.5 72 L 153 75.5 L 150 76 L 149.5 74 Q 148.3 76.2 147 73.5 L 148.5 72 Z " /><path fill="rgb(0,0,49)" stroke="rgb(0,0,49)" stroke-width="1" opacity="1" d="M 120.5 75 Q 122.8 74.3 122 76.5 L 120 77.5 L 120.5 75 Z " /><path fill="rgb(0,0,49)" stroke="rgb(0,0,49)" stroke-width="1" opacity="1" d="M 49.5 76 L 53 76.5 L 48.5 78 L 49.5 76 Z " /><path fill="rgb(0,0,49)" stroke="rgb(0,0,49)" stroke-width="1" opacity="1" d="M 87.5 77 L 88 79 L 85 78.5 L 87.5 77 Z " /><path fill="rgb(0,0,49)" stroke="rgb(0,0,49)" stroke-width="1" opacity="1" d="M 90.5 77 L 93 77.5 L 90.5 78 L 90.5 77 Z " /><path fill="rgb(0,0,49)" stroke="rgb(0,0,49)" stroke-width="1" opacity="1" d="M 153.5 77 L 157 77.5 L 153.5 78 L 153.5 77 Z " /><path fill="rgb(0,0,49)" stroke="rgb(0,0,49)" stroke-width="1" opacity="1" d="M 161.5 78 L 162.5 80 Q 159.7 80.7 161.5 78 Z " /><path fill="rgb(0,0,49)" stroke="rgb(0,0,49)" stroke-width="1" opacity="1" d="M 165.5 78 L 166.5 80 L 165.5 78 Z " /><path fill="rgb(0,0,49)" stroke="rgb(0,0,49)" stroke-width="1" opacity="1" d="M 60.5 80 L 61.5 82 Q 58.7 82.7 60.5 80 Z " /><path fill="rgb(0,0,49)" stroke="rgb(0,0,49)" stroke-width="1" opacity="1" d="M 77.5 81 L 80 81.5 Q 77.9 84.8 77.5 81 Z " /><path fill="rgb(0,0,49)" stroke="rgb(0,0,49)" stroke-width="1" opacity="1" d="M 76.5 83 L 73.5 87 L 76.5 83 Z " /><path fill="rgb(0,0,49)" stroke="rgb(0,0,49)" stroke-width="1" opacity="1" d="M 147.5 84 L 148 89 L 146 88.5 L 147.5 84 Z " /><path fill="rgb(0,0,49)" stroke="rgb(0,0,49)" stroke-width="1" opacity="1" d="M 65.5 85 L 67 87.5 L 66 87.5 L 65.5 85 Z " /><path fill="rgb(0,0,49)" stroke="rgb(0,0,49)" stroke-width="1" opacity="1" d="M 27 90 L 29 90.5 L 26 93.5 L 26 95.5 L 24.5 98 L 25 96.5 L 26 94.5 Q 23.5 93 27 91.5 L 27 90 Z " /><path fill="rgb(0,0,49)" stroke="rgb(0,0,49)" stroke-width="1" opacity="1" d="M 47.5 90 L 49.5 90 Q 51.8 89.3 51 91.5 Q 49 89.8 47 93.5 L 47.5 97 Q 45.3 97.8 46 95.5 L 47.5 90 Z " /><path fill="rgb(0,0,49)" stroke="rgb(0,0,49)" stroke-width="1" opacity="1" d="M 65.5 90 L 67.5 90 L 70 92.5 L 67.5 91 L 66.5 92 L 65.5 90 Z " /><path fill="rgb(0,0,49)" stroke="rgb(0,0,49)" stroke-width="1" opacity="1" d="M 88.5 90 L 89.5 92 L 88.5 90 Z " /><path fill="rgb(0,0,49)" stroke="rgb(0,0,49)" stroke-width="1" opacity="1" d="M 93.5 90 L 92.5 92 L 93.5 90 Z " /><path fill="rgb(0,0,49)" stroke="rgb(0,0,49)" stroke-width="1" opacity="1" d="M 117.5 90 L 119 92.5 L 118 95 L 116 95.5 L 118 96.5 L 116.5 97 L 115 95.5 L 118 92.5 L 117.5 90 Z " /><path fill="rgb(0,0,49)" stroke="rgb(0,0,49)" stroke-width="1" opacity="1" d="M 131.5 90 L 132.5 92 Q 129.7 92.7 131.5 90 Z " /><path fill="rgb(0,0,49)" stroke="rgb(0,0,49)" stroke-width="1" opacity="1" d="M 134.5 90 L 138 90.5 L 134.5 91 L 134.5 90 Z " /><path fill="rgb(0,0,49)" stroke="rgb(0,0,49)" stroke-width="1" opacity="1" d="M 145.5 90 Q 148 91.2 147 95 L 145 94.5 L 146 91.5 L 145.5 90 Z " /><path fill="rgb(0,0,49)" stroke="rgb(0,0,49)" stroke-width="1" opacity="1" d="M 44.5 91 L 46 91.5 L 42.5 94 L 42 92 L 44.5 91 Z " /><path fill="rgb(0,0,49)" stroke="rgb(0,0,49)" stroke-width="1" opacity="1" d="M 63.5 92 L 65 92.5 L 63 93 Q 64.1 95.7 61.5 95 L 63.5 92 Z " /><path fill="rgb(0,0,49)" stroke="rgb(0,0,49)" stroke-width="1" opacity="1" d="M 94.5 92 L 98 93.5 Q 98.8 95.8 96.5 95 L 96.5 93 Q 93.5 93.5 94.5 92 Z " /><path fill="rgb(0,0,49)" stroke="rgb(0,0,49)" stroke-width="1" opacity="1" d="M 66.5 93 L 69 94.5 L 67.5 95 L 66.5 93 Z " /><path fill="rgb(0,0,49)" stroke="rgb(0,0,49)" stroke-width="1" opacity="1" d="M 82.5 94 L 84 94.5 L 80.5 97 L 82.5 94 Z " /><path fill="rgb(0,0,49)" stroke="rgb(0,0,49)" stroke-width="1" opacity="1" d="M 113.5 94 L 114 96.5 L 112.5 98 L 112 95.5 L 113.5 94 Z " /><path fill="rgb(0,0,49)" stroke="rgb(0,0,49)" stroke-width="1" opacity="1" d="M 38.5 96 L 39.5 98 L 38.5 96 Z " /><path fill="rgb(0,0,49)" stroke="rgb(0,0,49)" stroke-width="1" opacity="1" d="M 97.5 96 L 96.5 98 L 97.5 96 Z " /><path fill="rgb(0,0,49)" stroke="rgb(0,0,49)" stroke-width="1" opacity="1" d="M 63.5 97 L 61.5 100 L 63.5 97 Z " /><path fill="rgb(0,0,49)" stroke="rgb(0,0,49)" stroke-width="1" opacity="1" d="M 130 97 L 132 97.5 L 130 100.5 L 130.5 102 L 129 99.5 L 130 97 Z " /><path fill="rgb(0,0,49)" stroke="rgb(0,0,49)" stroke-width="1" opacity="1" d="M 59.5 100 L 60 102 L 56.5 103 L 56.5 102 L 59.5 100 Z " /><path fill="rgb(0,0,49)" stroke="rgb(0,0,49)" stroke-width="1" opacity="1" d="M 166.5 100 L 166.5 103 L 164 102.5 L 166.5 100 Z " /><path fill="rgb(0,0,49)" stroke="rgb(0,0,49)" stroke-width="1" opacity="1" d="M 172 100 Q 175 99 174 102 Q 171 103 172 100 Z " /><path fill="rgb(0,0,49)" stroke="rgb(0,0,49)" stroke-width="1" opacity="1" d="M 97.5 101 L 98 102.5 L 92.5 109 L 89.5 110 L 89.5 109 L 96 104.5 L 97.5 101 Z " /><path fill="rgb(0,0,49)" stroke="rgb(0,0,49)" stroke-width="1" opacity="1" d="M 41.5 103 L 42.5 105 Q 39.7 105.7 41.5 103 Z " /><path fill="rgb(0,0,49)" stroke="rgb(0,0,49)" stroke-width="1" opacity="1" d="M 129.5 103 L 131 105.5 L 129 106.5 L 129 104.5 L 129.5 103 Z " /><path fill="rgb(0,0,49)" stroke="rgb(0,0,49)" stroke-width="1" opacity="1" d="M 159.5 103 L 161.5 106 L 159 104.5 L 158.5 106 L 158 104.5 L 159.5 103 Z " /><path fill="rgb(0,0,49)" stroke="rgb(0,0,49)" stroke-width="1" opacity="1" d="M 143.5 104 L 144.5 106 Q 141.7 106.7 143.5 104 Z " /><path fill="rgb(0,0,49)" stroke="rgb(0,0,49)" stroke-width="1" opacity="1" d="M 39.5 105 Q 42.5 106.5 39.5 108 L 39.5 105 Z " /><path fill="rgb(0,0,49)" stroke="rgb(0,0,49)" stroke-width="1" opacity="1" d="M 79.5 105 L 81.5 108 L 79.5 105 Z " /><path fill="rgb(0,0,49)" stroke="rgb(0,0,49)" stroke-width="1" opacity="1" d="M 51.5 106 L 52 108 L 48.5 109 L 48.5 108 L 51.5 106 Z " /><path fill="rgb(0,0,49)" stroke="rgb(0,0,49)" stroke-width="1" opacity="1" d="M 110.5 106 L 111 107.5 L 109.5 110 L 109 108.5 L 110.5 106 Z " /><path fill="rgb(0,0,49)" stroke="rgb(0,0,49)" stroke-width="1" opacity="1" d="M 172.5 106 L 171.5 108 L 172.5 106 Z " /><path fill="rgb(0,0,49)" stroke="rgb(0,0,49)" stroke-width="1" opacity="1" d="M 83.5 107 L 84.5 109 L 83.5 107 Z " /><path fill="rgb(0,0,49)" stroke="rgb(0,0,49)" stroke-width="1" opacity="1" d="M 142.5 107 L 141.5 109 L 139 108.5 L 142.5 107 Z " /><path fill="rgb(0,0,49)" stroke="rgb(0,0,49)" stroke-width="1" opacity="1" d="M 130.5 108 L 132.5 111 L 130.5 108 Z " /><path fill="rgb(0,0,49)" stroke="rgb(0,0,49)" stroke-width="1" opacity="1" d="M 134.5 108 Q 136.3 111.1 138 109.5 L 136.5 111 L 134 110.5 L 134.5 108 Z " /><path fill="rgb(0,0,49)" stroke="rgb(0,0,49)" stroke-width="1" opacity="1" d="M 24.5 109 L 26 111.5 L 24 110.5 L 24.5 109 Z " /><path fill="rgb(0,0,49)" stroke="rgb(0,0,49)" stroke-width="1" opacity="1" d="M 64.5 112 L 63.5 114 L 64.5 112 Z " /><path fill="rgb(0,0,49)" stroke="rgb(0,0,49)" stroke-width="1" opacity="1" d="M 61.5 114 L 60.5 116 L 61.5 114 Z " /><path fill="rgb(0,0,49)" stroke="rgb(0,0,49)" stroke-width="1" opacity="1" d="M 68.5 114 L 74 118.5 L 71.5 117 L 68.5 115 L 68.5 114 Z " /><path fill="rgb(0,0,49)" stroke="rgb(0,0,49)" stroke-width="1" opacity="1" d="M 108.5 114 L 109 116.5 L 108 116.5 L 108.5 114 Z " /><path fill="rgb(0,0,49)" stroke="rgb(0,0,49)" stroke-width="1" opacity="1" d="M 26.5 115 Q 30.5 114.5 31 117.5 L 28.5 116 Q 25.5 116.5 26.5 115 Z " /><path fill="rgb(0,0,49)" stroke="rgb(0,0,49)" stroke-width="1" opacity="1" d="M 65.5 116 Q 67.8 115.3 67 117.5 L 64 117.5 L 65.5 116 Z " /><path fill="rgb(0,0,49)" stroke="rgb(0,0,49)" stroke-width="1" opacity="1" d="M 58.5 117 L 57.5 119 L 56 118.5 L 58.5 117 Z " /><path fill="rgb(0,0,49)" stroke="rgb(0,0,49)" stroke-width="1" opacity="1" d="M 117.5 117 L 121 119.5 L 120.5 121 Q 119 117.5 117.5 120 L 116 119.5 L 118 118.5 L 117.5 117 Z " /><path fill="rgb(0,0,49)" stroke="rgb(0,0,49)" stroke-width="1" opacity="1" d="M 109.5 118 L 110 120.5 Q 110.8 122.8 108.5 122 L 107 122.5 Q 106.3 120.3 108.5 121 L 109.5 118 Z " /><path fill="rgb(0,0,49)" stroke="rgb(0,0,49)" stroke-width="1" opacity="1" d="M 54.5 119 L 53.5 121 L 52 120.5 L 54.5 119 Z " /><path fill="rgb(0,0,49)" stroke="rgb(0,0,49)" stroke-width="1" opacity="1" d="M 73.5 120 L 74.5 122 L 73.5 120 Z " /><path fill="rgb(0,0,49)" stroke="rgb(0,0,49)" stroke-width="1" opacity="1" d="M 76.5 120 L 79 121.5 L 77.5 122 L 76.5 120 Z " /><path fill="rgb(0,0,49)" stroke="rgb(0,0,49)" stroke-width="1" opacity="1" d="M 122.5 120 L 127 122.5 L 125.5 123 L 122 122 L 122.5 120 Z " /><path fill="rgb(0,0,49)" stroke="rgb(0,0,49)" stroke-width="1" opacity="1" d="M 141.5 120 L 140.5 122 L 139 121.5 L 141.5 120 Z " /><path fill="rgb(0,0,49)" stroke="rgb(0,0,49)" stroke-width="1" opacity="1" d="M 36.5 121 L 39.5 123 L 43.5 122 L 43.5 123 L 39.5 124 L 36.5 121 Z " /><path fill="rgb(0,0,49)" stroke="rgb(0,0,49)" stroke-width="1" opacity="1" d="M 95.5 126 L 94.5 128 L 95.5 126 Z " /><path fill="rgb(184,186,211)" stroke="rgb(184,186,211)" stroke-width="1" opacity="1" d="M 154.5 74 L 157 74.5 L 154.5 75 L 154.5 74 Z " /><path fill="rgb(184,186,211)" stroke="rgb(184,186,211)" stroke-width="1" opacity="1" d="M 104.5 79 L 102.5 82 L 104.5 79 Z " /><path fill="rgb(184,186,211)" stroke="rgb(184,186,211)" stroke-width="1" opacity="1" d="M 36.5 83 L 35.5 85 L 36.5 83 Z " /><path fill="rgb(184,186,211)" stroke="rgb(184,186,211)" stroke-width="1" opacity="1" d="M 78.5 83 L 77.5 85 L 78.5 83 Z " /><path fill="rgb(184,186,211)" stroke="rgb(184,186,211)" stroke-width="1" opacity="1" d="M 40.5 92 L 38.5 95 L 40.5 92 Z " /><path fill="rgb(184,186,211)" stroke="rgb(184,186,211)" stroke-width="1" opacity="1" d="M 56.5 92 L 57.5 94 L 56.5 92 Z " /><path fill="rgb(184,186,211)" stroke="rgb(184,186,211)" stroke-width="1" opacity="1" d="M 82.5 92 L 81.5 94 L 82.5 92 Z " /><path fill="rgb(184,186,211)" stroke="rgb(184,186,211)" stroke-width="1" opacity="1" d="M 69.5 94 L 68.5 96 L 69.5 94 Z " /><path fill="rgb(184,186,211)" stroke="rgb(184,186,211)" stroke-width="1" opacity="1" d="M 133.5 111 L 136 111.5 L 133.5 112 L 133.5 111 Z " /><path fill="rgb(184,186,211)" stroke="rgb(184,186,211)" stroke-width="1" opacity="1" d="M 159.5 123 L 160.5 125 L 159.5 123 Z " /><path fill="rgb(0,6,70)" stroke="rgb(0,6,70)" stroke-width="1" opacity="1" d="M 64 0 L 76 0 L 76 14.5 L 78 17.5 L 76 21.5 L 75 29.5 L 66 48 L 64 48 L 64 53 L 62.5 53 Q 60 54.2 61 58 L 58 59.5 L 54 65.5 L 48 68 L 48 73 L 49.5 73 Q 50.8 70.8 52 73.5 L 48.5 74 L 45.5 73 L 45.5 74 L 47 74.5 L 41 77.5 L 41 79 Q 37.2 77.5 38 80.5 L 38.5 82 L 32 80 Q 33 83.8 30.5 85 Q 28.3 84.3 29 86.5 L 25 91.5 L 25.5 93 L 23.5 93 L 20 92 L 17.5 96 L 13.5 99 L 4.5 102 L 0 102 L 0 86.5 Q 0 85.5 4.5 86 L 11 82 Q 9.6 78 16.5 80 L 20.5 74 L 24 72.5 L 25.5 70 L 32 68 Q 30.9 65.3 33.5 66 Q 36.3 64.8 34 63.5 L 35.5 61 L 40 60 Q 41 53.8 46 50.5 L 46 48 Q 48.7 49.1 48 46.5 L 52 42.5 L 56 33.5 L 54 30.5 L 56 30.5 L 56 27 Q 59.8 28.5 59 25.5 L 59.5 24 Q 57.3 24.8 58 22.5 L 61 16 L 64 14.5 L 63 5.5 L 64 0 Z M 42 74 L 42 75 L 44 75 L 42 74 Z M 15 94 L 13 96 L 15 96 L 15 94 Z " /><path fill="rgb(0,6,70)" stroke="rgb(0,6,70)" stroke-width="1" opacity="1" d="M 156 51 L 160 51.5 L 156 53 L 156 51 Z " /><path fill="rgb(0,6,70)" stroke="rgb(0,6,70)" stroke-width="1" opacity="1" d="M 155.5 57 L 156.5 59 L 159.5 57 L 162 60.5 L 161 60.5 L 160.5 59 L 158.5 59 L 156.5 60 L 152 58.5 L 155.5 57 Z " /><path fill="rgb(0,6,70)" stroke="rgb(0,6,70)" stroke-width="1" opacity="1" d="M 119 66 Q 124.2 64.3 123 68 L 120.5 69 L 119 66 Z " /><path fill="rgb(0,6,70)" stroke="rgb(0,6,70)" stroke-width="1" opacity="1" d="M 134.5 66 Q 138.3 65 137 68 L 134.5 66 Z " /><path fill="rgb(0,6,70)" stroke="rgb(0,6,70)" stroke-width="1" opacity="1" d="M 146.5 67 L 147.5 69 L 146.5 67 Z " /><path fill="rgb(0,6,70)" stroke="rgb(0,6,70)" stroke-width="1" opacity="1" d="M 146.5 70 Q 149.1 69.2 148 72.5 L 147 72.5 L 146.5 70 Z " /><path fill="rgb(0,6,70)" stroke="rgb(0,6,70)" stroke-width="1" opacity="1" d="M 164.5 71 L 165.5 74 L 167 74.5 L 164 76.5 L 165 78.5 L 164 78.5 L 163 73 L 165 72.5 L 164.5 71 Z " /><path fill="rgb(0,6,70)" stroke="rgb(0,6,70)" stroke-width="1" opacity="1" d="M 119.5 72 L 119.5 75 L 117 74.5 L 119.5 72 Z " /><path fill="rgb(0,6,70)" stroke="rgb(0,6,70)" stroke-width="1" opacity="1" d="M 87.5 73 L 88.5 75 L 87.5 73 Z " /><path fill="rgb(0,6,70)" stroke="rgb(0,6,70)" stroke-width="1" opacity="1" d="M 144.5 73 L 147 74.5 L 146 76.5 L 147.5 76 L 150 77.5 Q 148.8 80.3 147.5 78 L 145 76.5 L 146 74.5 L 144.5 73 Z " /><path fill="rgb(0,6,70)" stroke="rgb(0,6,70)" stroke-width="1" opacity="1" d="M 103.5 75 L 104.5 77 L 103.5 75 Z " /><path fill="rgb(0,6,70)" stroke="rgb(0,6,70)" stroke-width="1" opacity="1" d="M 74.5 80 L 74 81.5 L 73.5 83 L 73 81.5 L 74.5 80 Z " /><path fill="rgb(0,6,70)" stroke="rgb(0,6,70)" stroke-width="1" opacity="1" d="M 71.5 86 L 70 88.5 Q 70.8 90.8 68.5 90 L 69 88.5 Q 68.3 86.3 70.5 87 L 71.5 86 Z " /><path fill="rgb(0,6,70)" stroke="rgb(0,6,70)" stroke-width="1" opacity="1" d="M 142.5 91 L 144 91.5 L 142 92 Q 143.1 94.7 140.5 94 L 142.5 91 Z " /><path fill="rgb(0,6,70)" stroke="rgb(0,6,70)" stroke-width="1" opacity="1" d="M 89.5 92 L 91 92.5 L 89 93 Q 90.1 95.7 87.5 95 L 86.5 93 Q 88 95.5 89.5 92 Z " /><path fill="rgb(0,6,70)" stroke="rgb(0,6,70)" stroke-width="1" opacity="1" d="M 113.5 92 L 116 92.5 L 113.5 93 L 113.5 92 Z " /><path fill="rgb(0,6,70)" stroke="rgb(0,6,70)" stroke-width="1" opacity="1" d="M 43.5 93 L 45 96 L 41 95.5 L 43.5 93 Z " /><path fill="rgb(0,6,70)" stroke="rgb(0,6,70)" stroke-width="1" opacity="1" d="M 47.5 93 L 46.5 95 L 47.5 93 Z " /><path fill="rgb(0,6,70)" stroke="rgb(0,6,70)" stroke-width="1" opacity="1" d="M 51.5 93 L 55 94.5 L 53.5 95 L 51.5 93 Z " /><path fill="rgb(0,6,70)" stroke="rgb(0,6,70)" stroke-width="1" opacity="1" d="M 63.5 93 L 66 94.5 L 61.5 98 L 61.5 95 Q 64 95.7 63.5 93 Z " /><path fill="rgb(0,6,70)" stroke="rgb(0,6,70)" stroke-width="1" opacity="1" d="M 25.5 94 L 26.5 96 L 25.5 94 Z " /><path fill="rgb(0,6,70)" stroke="rgb(0,6,70)" stroke-width="1" opacity="1" d="M 144.5 96 L 146 98.5 L 144 97.5 L 144.5 96 Z " /><path fill="rgb(0,6,70)" stroke="rgb(0,6,70)" stroke-width="1" opacity="1" d="M 160.5 96 L 162 99 L 160 98.5 L 160.5 96 Z " /><path fill="rgb(0,6,70)" stroke="rgb(0,6,70)" stroke-width="1" opacity="1" d="M 174 96 Q 177.7 94.8 176 100 Q 172.3 101.2 174 96 Z " /><path fill="rgb(0,6,70)" stroke="rgb(0,6,70)" stroke-width="1" opacity="1" d="M 166.5 97 L 168 100.5 L 167 100.5 L 166.5 99 L 165 99.5 L 166.5 97 Z " /><path fill="rgb(0,6,70)" stroke="rgb(0,6,70)" stroke-width="1" opacity="1" d="M 43.5 98 L 47 99.5 L 45.5 102 L 42 99.5 L 43.5 98 Z " /><path fill="rgb(0,6,70)" stroke="rgb(0,6,70)" stroke-width="1" opacity="1" d="M 139.5 98 Q 144 100 140.5 102 Q 136 100 139.5 98 Z " /><path fill="rgb(0,6,70)" stroke="rgb(0,6,70)" stroke-width="1" opacity="1" d="M 114 99 L 116 99.5 L 114 100.5 L 114 99 Z " /><path fill="rgb(0,6,70)" stroke="rgb(0,6,70)" stroke-width="1" opacity="1" d="M 56.5 100 L 59 100.5 Q 56.9 103.8 56.5 100 Z " /><path fill="rgb(0,6,70)" stroke="rgb(0,6,70)" stroke-width="1" opacity="1" d="M 161.5 100 L 164 101.5 L 163.5 104 L 162.5 101 L 161.5 100 Z " /><path fill="rgb(0,6,70)" stroke="rgb(0,6,70)" stroke-width="1" opacity="1" d="M 36.5 101 L 37.5 103 L 36.5 101 Z " /><path fill="rgb(0,6,70)" stroke="rgb(0,6,70)" stroke-width="1" opacity="1" d="M 167.5 102 Q 170.8 100.9 170 103.5 L 172.5 105 L 174.5 104 Q 176.5 107 182.5 106 L 184.5 104 L 192 104 L 192.5 102 L 200 102 L 200 116.5 L 198.5 117 L 175 123 Q 176.1 126.3 172 125 L 171.5 122 L 169 129 L 167 129 Q 168.5 125.2 165.5 126 L 165.5 125 L 168 124.5 L 166 124 Q 165 121 168 122 L 168 119.5 L 170 115.5 L 172 112.5 Q 173.2 109.3 177 110 Q 178.1 107.3 175.5 108 L 175.5 106 L 173.5 105 L 171 106.5 L 170.5 105 L 168 106.5 L 168 104.5 L 167.5 102 Z M 175 114 L 173 116 L 175 116 L 175 114 Z M 172 118 L 169 120 L 172 120 L 172 118 Z " /><path fill="rgb(0,6,70)" stroke="rgb(0,6,70)" stroke-width="1" opacity="1" d="M 133.5 103 L 136 106.5 L 135.5 109 L 130 106.5 L 130.5 104 Q 132 106.5 133.5 103 Z " /><path fill="rgb(0,6,70)" stroke="rgb(0,6,70)" stroke-width="1" opacity="1" d="M 50.5 104 L 54 104.5 L 50 105.5 L 50.5 107 L 48.5 108 L 46.5 107 L 43 107.5 L 50.5 104 Z " /><path fill="rgb(0,6,70)" stroke="rgb(0,6,70)" stroke-width="1" opacity="1" d="M 92.5 104 L 91.5 106 L 92.5 104 Z " /><path fill="rgb(0,6,70)" stroke="rgb(0,6,70)" stroke-width="1" opacity="1" d="M 84.5 106 L 85.5 108 L 84.5 106 Z " /><path fill="rgb(0,6,70)" stroke="rgb(0,6,70)" stroke-width="1" opacity="1" d="M 161.5 107 L 161 108.5 L 160.5 110 L 160 108.5 L 161.5 107 Z " /><path fill="rgb(0,6,70)" stroke="rgb(0,6,70)" stroke-width="1" opacity="1" d="M 158.5 110 L 159 112 L 161 112.5 L 159 113 L 158 116.5 L 159 119.5 Q 159.8 122.1 156.5 121 L 156.5 122 L 158 122.5 L 156 123.5 L 155.5 122 L 153 123.5 Q 155.8 124.6 155 128 L 158.5 126 L 161.5 128 L 162 125.5 L 160 125.5 Q 160.5 122.5 164.5 123 L 164.5 124 Q 162.3 123.3 163 125.5 L 163 127.5 L 164 130.5 L 160 132 Q 161.3 127.9 158 129 Q 158.8 132.8 155.5 134 L 152 135.5 Q 153.3 139.3 149.5 138 L 142.5 144 Q 138.8 143.3 138 145.5 L 138 148 Q 135.3 146.9 136 149.5 L 128 155.5 Q 130.1 161.3 125.5 160 L 122 165.5 L 122 168 Q 119 166.8 120 170.5 L 118 172.5 L 116 180 L 112 181.5 L 112 183.5 L 108 188.5 L 108 191.5 L 108.5 193 L 107 193.5 L 107 200 L 91 200 L 93 192 L 96 190.5 Q 94.5 182 100 180.5 L 100 172.5 L 107 161.5 L 107 158.5 L 110.5 155 L 112 155 L 112 152 Q 114.7 153.1 114 150.5 L 120 141 L 125 137.5 Q 124.3 135.3 126.5 136 L 128 133 L 137 127.5 L 136 125.5 L 137.5 123 L 139.5 124 L 139.5 122 L 143.5 124 L 144.5 123 L 152.5 123 L 156 120.5 Q 153.5 119 157 117.5 L 158.5 110 Z M 137 125 L 137 127 L 140 126 L 137 125 Z M 153 125 L 154 127 Q 155 124 153 125 Z " /><path fill="rgb(0,6,70)" stroke="rgb(0,6,70)" stroke-width="1" opacity="1" d="M 110.5 112 L 113 113 L 113.5 115 L 115 114.5 L 114.5 117 L 110.5 119 L 109 116.5 L 111 113.5 L 110.5 112 Z " /><path fill="rgb(0,6,70)" stroke="rgb(0,6,70)" stroke-width="1" opacity="1" d="M 26.5 116 L 27 119 L 29 119.5 L 27.5 120 L 25 119.5 L 26.5 116 Z " /><path fill="rgb(0,6,70)" stroke="rgb(0,6,70)" stroke-width="1" opacity="1" d="M 69.5 117 Q 72.5 118.5 69.5 120 L 68 119.5 L 70 118.5 L 69.5 117 Z " /><path fill="rgb(0,6,70)" stroke="rgb(0,6,70)" stroke-width="1" opacity="1" d="M 57.5 119 Q 60.5 120.5 57.5 122 Q 55.3 122.8 56 120.5 L 57.5 119 Z " /><path fill="rgb(0,6,70)" stroke="rgb(0,6,70)" stroke-width="1" opacity="1" d="M 48.5 123 L 52 125.5 L 50.5 126 L 48 125 L 48.5 123 Z " /><path fill="rgb(0,6,70)" stroke="rgb(0,6,70)" stroke-width="1" opacity="1" d="M 80.5 123 L 80.5 126 Q 77.5 124.5 80.5 123 Z " /><path fill="rgb(0,6,70)" stroke="rgb(0,6,70)" stroke-width="1" opacity="1" d="M 89.5 123 L 91 123.5 L 89 124.5 L 91 125 L 90.5 127 Q 86 125 89.5 123 Z " /><path fill="rgb(0,6,70)" stroke="rgb(0,6,70)" stroke-width="1" opacity="1" d="M 93.5 123 L 96 123.5 L 92.5 125 L 93.5 123 Z " /><path fill="rgb(0,6,70)" stroke="rgb(0,6,70)" stroke-width="1" opacity="1" d="M 121.5 123 L 125 125.5 L 123.5 125 Q 119.5 126 121.5 123 Z " /><path fill="rgb(0,6,70)" stroke="rgb(0,6,70)" stroke-width="1" opacity="1" d="M 45.5 124 Q 47.8 123.3 47 125.5 L 45.5 124 Z " /><path fill="rgb(0,6,70)" stroke="rgb(0,6,70)" stroke-width="1" opacity="1" d="M 127.5 124 L 128.5 126 L 127.5 124 Z " /><path fill="rgb(0,6,70)" stroke="rgb(0,6,70)" stroke-width="1" opacity="1" d="M 105 125 L 109 125.5 L 106 126 L 105.5 128 L 105 125 Z " /><path fill="rgb(0,24,99)" stroke="rgb(0,24,99)" stroke-width="1" opacity="1" d="M 0 0 L 38.5 0 Q 39.6 0.1 39 5.5 L 38 6.5 L 38 15.5 L 28 31.5 L 29 33.5 L 24 37 L 24 40 L 20 40 L 20 41.5 L 13.5 50 L 8 52 Q 10.2 57.6 4.5 56 L 0.5 59 L 0 0 Z " /><path fill="rgb(0,24,99)" stroke="rgb(0,24,99)" stroke-width="1" opacity="1" d="M 194.5 145 Q 199.9 144.4 200 145.5 L 200 200 L 136.5 200 L 136 196.5 Q 139.5 195 138 188.5 L 142.5 182 L 144.5 183 L 149 173 L 152 171.5 L 158.5 163 Q 162.3 163.8 163 161.5 L 165.5 158 L 175.5 152 L 176 154 L 179 152.5 L 177 151.5 L 183.5 148 L 186.5 149 L 194.5 145 Z " /></svg>